<?xml version="1.0" encoding="UTF-8"?>
<svg id="Layer_2" data-name="Layer 2" xmlns="http://www.w3.org/2000/svg" viewBox="0 0 80.43 13.42">
  <defs>
    <style>
      .cls-1 {
        fill: #000;
      }

      .cls-1, .cls-2 {
        stroke-width: 0px;
      }

      .cls-2 {
        fill: #ffaa80;
      }
    </style>
  </defs>
  <g id="Layer_1-2" data-name="Layer 1">
    <g>
      <g>
        <path class="cls-1" d="M38.74.22h-2.96c-2.06,0-3.61,1.55-3.61,3.59v2.76h-.57V1.06c0-.47-.38-.85-.85-.85h-3.92c-.47,0-.85.38-.85.85v.52c-1.07-1-2.5-1.58-4-1.58-1.86,0-3.61.9-4.71,2.37l-1-1.73c-.15-.26-.43-.42-.73-.42h-5.54c-.3,0-.58.16-.73.42l-.02.03c-.14-.27-.43-.46-.75-.46H.85c-.47,0-.85.38-.85.85v4.94c0,.47.38.85.85.85h1.01v5.51c0,.47.38.85.85.85h3.92c.47,0,.85-.38.85-.85v-2.66l1.78,3.09c.15.26.43.42.73.42h5.54c.3,0,.58-.16.73-.42l1-1.73c1.1,1.48,2.85,2.37,4.71,2.37,1.5,0,2.93-.58,4-1.58v.52c0,.47.38.85.85.85h7.42c2.06,0,3.61-1.55,3.61-3.59v-2.76h.89c.47,0,.85-.38.85-.85V1.06c0-.47-.38-.85-.85-.85Z"/>
        <path class="cls-2" d="M37.01,4.3h1.74V1.06h-2.96c-1.59,0-2.76,1.16-2.76,2.75v3.61h-2.27V1.06h-3.92v3.53c-.11-.43-.28-.85-.51-1.24h0c-.9-1.55-2.55-2.51-4.34-2.51s-3.45.96-4.34,2.51h0c-.14.24-.25.5-.35.76l-1.76-3.05h-5.54l-1.51,2.61V1.06H.85v3.24h1.86v6.36h3.92v-6.36h1.5l-.9,1.56,2.77,4.8h5.54l1.76-3.05c.1.26.21.51.35.76.9,1.55,2.55,2.51,4.34,2.51s3.45-.96,4.34-2.51c.23-.39.4-.81.51-1.24v3.53h7.42c1.59,0,2.76-1.16,2.76-2.75v-3.61ZM12.77,7.67c-1,0-1.81-.81-1.81-1.81s.81-1.81,1.81-1.81,1.81.81,1.81,1.81-.81,1.81-1.81,1.81ZM24.32,6.65h-.62c-.51,0-.93.42-.93.93v.62h-1.58v-.62c0-.51-.42-.93-.93-.93h-.62v-1.58h.62c.51,0,.93-.42.93-.93v-.62h1.58v.62c0,.51.42.93.93.93h.62v1.58Z"/>
      </g>
      <g>
        <path class="cls-1" d="M45.69,8.29l-.11.7h-1.14l.95-5.97h1.2l-.38,2.41c.28-.45.76-.78,1.37-.78.96,0,1.7.74,1.7,1.93,0,1.36-1.04,2.51-2.25,2.51-.68,0-1.15-.31-1.33-.8ZM48.02,6.59c0-.63-.32-1.01-.83-1.01-.66,0-1.22.74-1.22,1.56,0,.62.31,1.01.84,1.01.67,0,1.21-.72,1.21-1.56Z"/>
        <path class="cls-1" d="M48.23,10.28l.75-.73c.11.25.27.36.48.36.26,0,.43-.23.62-.61l.15-.32h-.38l-.85-4.24h1.25l.49,2.99,1.44-2.99h1.31l-2.56,4.88c-.46.88-.88,1.26-1.57,1.26-.49,0-.93-.26-1.12-.61Z"/>
        <path class="cls-1" d="M55.73,4.75h1.21l-.68,4.24h-1.2l.67-4.24ZM55.86,3.66c0-.42.33-.76.74-.76.35,0,.6.25.6.57,0,.43-.33.76-.74.76-.35,0-.6-.25-.6-.57Z"/>
        <path class="cls-1" d="M57.25,4.75h1.14l-.1.62c.32-.43.77-.72,1.37-.72.83,0,1.35.53,1.35,1.31,0,.17-.02.32-.04.47l-.4,2.56h-1.2l.38-2.41c.03-.11.04-.26.04-.34,0-.39-.23-.6-.62-.6-.46,0-.9.36-1,1l-.38,2.36h-1.2l.67-4.24Z"/>
        <path class="cls-1" d="M60.9,4.75h1.25l.51,2.93,1.42-2.93h1.31l-2.23,4.24h-1.36l-.89-4.24Z"/>
        <path class="cls-1" d="M64.39,7.86c0-.79.67-1.41,1.67-1.41.58,0,1.06.25,1.27.49l.08-.55c.02-.09.03-.15.03-.26,0-.36-.26-.55-.65-.55-.42,0-.77.22-.95.63l-1.13-.18c.34-.85,1.08-1.38,2.21-1.38,1.01,0,1.74.39,1.74,1.35,0,.15-.02.29-.03.44l-.41,2.55h-1.14l.08-.5c-.31.39-.78.6-1.27.6-.84,0-1.49-.46-1.49-1.23ZM67.19,7.78l.02-.11c-.17-.22-.52-.44-.88-.44-.43,0-.74.23-.74.58,0,.29.25.51.64.51s.73-.22.96-.53Z"/>
        <path class="cls-1" d="M68.55,7.16c0-1.36,1.04-2.51,2.24-2.51.68,0,1.12.3,1.28.72l.37-2.35h1.21l-.95,5.97h-1.14l.12-.76c-.28.49-.8.86-1.44.86-.96,0-1.69-.74-1.69-1.93ZM71.85,6.6c0-.62-.31-1.01-.85-1.01-.67,0-1.21.73-1.21,1.56,0,.63.32,1.01.83,1.01.67,0,1.23-.76,1.23-1.56Z"/>
        <path class="cls-1" d="M77.34,7.15h-3.02c0,.63.34,1.01.91,1.01.46,0,.8-.24,1.07-.67l.96.47c-.4.69-1.17,1.13-2.11,1.13-1.22,0-2.07-.74-2.07-1.98,0-1.37,1-2.46,2.41-2.46,1.19,0,1.91.77,1.91,1.86,0,.19-.03.48-.06.63ZM76.21,6.33c0-.48-.26-.79-.74-.79-.52,0-.89.38-1.06.92h1.79s0-.09,0-.13Z"/>
        <path class="cls-1" d="M80.43,4.32c0,1.01-.76,1.8-1.78,1.8-.88,0-1.47-.6-1.47-1.43,0-1.02.76-1.8,1.79-1.8.87,0,1.46.6,1.46,1.43ZM80.03,4.35c0-.64-.43-1.09-1.1-1.09-.75,0-1.36.61-1.36,1.41,0,.65.44,1.1,1.11,1.1.75,0,1.35-.6,1.35-1.42ZM79.07,4.64l.08.15c.09.18.16.21.35.21l-.05.33c-.38,0-.51-.1-.67-.42l-.1-.2h-.2l-.09.62h-.37l.27-1.7h.68c.4,0,.64.19.64.5,0,.33-.24.49-.52.52ZM79.21,4.15c0-.15-.1-.21-.28-.21h-.32l-.08.47h.38c.18,0,.3-.09.3-.26Z"/>
      </g>
    </g>
  </g>
</svg>