<?xml version="1.0" encoding="UTF-8"?>
<svg id="Layer_2" data-name="Layer 2" xmlns="http://www.w3.org/2000/svg" viewBox="0 0 70.5 9.54">
  <defs>
    <style>
      .cls-1 {
        fill: #000;
      }

      .cls-1, .cls-2 {
        stroke-width: 0px;
      }

      .cls-2 {
        fill: #fff;
      }
    </style>
  </defs>
  <g id="Layer_1-2" data-name="Layer 1">
    <g>
      <g>
        <path class="cls-1" d="M36.82.13h-2.03c-1.47,0-2.58,1.11-2.58,2.57v1.79h-.18V.82c0-.38-.31-.69-.69-.69h-2.69c-.36,0-.66.28-.68.64-.7-.49-1.54-.77-2.43-.77-1.31,0-2.5.58-3.29,1.53-.79-.94-1.99-1.53-3.26-1.53-.8,0-1.55.21-2.21.6-.09-.27-.35-.47-.65-.47h-5.24c-.38,0-.69.31-.69.69v3.54c0,.38.31.69.69.69h.59v3.68c0,.38.31.69.69.69h2.69c.38,0,.69-.31.69-.69v-.92c.77,1.05,2.03,1.74,3.45,1.74,1.29,0,2.48-.57,3.26-1.53.79.95,1.98,1.53,3.29,1.53.89,0,1.73-.28,2.43-.77.02.36.32.64.68.64h5.09c1.47,0,2.58-1.11,2.58-2.57v-1.79h.51c.38,0,.69-.31.69-.69V.82c0-.38-.31-.69-.69-.69Z"/>
        <path class="cls-2" d="M35.62,3.04h1.19V.82h-2.03c-1.1,0-1.89.8-1.89,1.89v2.48h-1.56V.82h-2.69v1.73c-.59-1.1-1.77-1.86-3.12-1.86-1.5,0-2.77.9-3.28,2.15-.52-1.26-1.8-2.15-3.27-2.15-1.18,0-2.22.56-2.86,1.42V.82h-5.24v2.22h1.28v4.36h2.69V3.04h.79c-.11.34-.19.69-.19,1.06,0,1.89,1.57,3.43,3.54,3.43,1.47,0,2.74-.9,3.27-2.16.52,1.26,1.78,2.16,3.28,2.16,1.35,0,2.53-.76,3.12-1.87v1.74h5.09c1.1,0,1.89-.8,1.89-1.89v-2.48ZM18.97,5.06c-.52,0-.96-.42-.96-.95s.44-.95.96-.95.93.43.93.95-.43.95-.93.95ZM25.51,5.06c-.52,0-.96-.42-.96-.95s.44-.95.96-.95.93.43.93.95-.43.95-.93.95Z"/>
        <g>
          <path class="cls-1" d="M41.24,6.77l-.09.59h-.96l.79-5.03h1.01l-.32,2.03c.24-.38.64-.66,1.15-.66.81,0,1.43.62,1.43,1.63,0,1.14-.88,2.11-1.89,2.11-.57,0-.97-.26-1.12-.67ZM43.2,5.34c0-.53-.27-.85-.7-.85-.56,0-1.03.62-1.03,1.31,0,.52.26.85.71.85.56,0,1.02-.61,1.02-1.32Z"/>
          <path class="cls-1" d="M43.38,8.45l.63-.61c.09.21.22.3.41.3.22,0,.36-.2.52-.51l.13-.27h-.32l-.72-3.57h1.05l.41,2.52,1.21-2.52h1.1l-2.16,4.11c-.39.75-.75,1.06-1.32,1.06-.41,0-.78-.22-.94-.51Z"/>
          <path class="cls-1" d="M49.7,3.79h1.02l-.57,3.57h-1.01l.56-3.57ZM49.81,2.87c0-.35.27-.64.62-.64.3,0,.51.21.51.48,0,.36-.28.64-.62.64-.3,0-.51-.21-.51-.48Z"/>
          <path class="cls-1" d="M50.98,3.79h.96l-.09.52c.27-.36.65-.61,1.16-.61.7,0,1.13.45,1.13,1.1,0,.14-.01.27-.04.4l-.34,2.16h-1.01l.32-2.03c.02-.09.04-.22.04-.29,0-.33-.2-.51-.52-.51-.38,0-.76.3-.85.84l-.32,1.99h-1.01l.56-3.57Z"/>
          <path class="cls-1" d="M54.06,3.79h1.05l.43,2.47,1.19-2.47h1.1l-1.88,3.57h-1.14l-.75-3.57Z"/>
          <path class="cls-1" d="M56.99,6.41c0-.67.56-1.19,1.41-1.19.48,0,.89.21,1.07.41l.06-.46c.01-.08.02-.13.02-.22,0-.3-.22-.46-.55-.46-.35,0-.65.19-.8.53l-.95-.15c.29-.72.91-1.16,1.86-1.16.85,0,1.47.33,1.47,1.14,0,.12-.01.25-.03.37l-.35,2.15h-.96l.07-.42c-.26.33-.66.51-1.07.51-.71,0-1.25-.39-1.25-1.03ZM59.35,6.34v-.09c-.13-.19-.42-.37-.73-.37-.36,0-.62.2-.62.48,0,.25.21.43.54.43s.61-.19.81-.45Z"/>
          <path class="cls-1" d="M60.49,5.82c0-1.14.88-2.11,1.89-2.11.57,0,.94.25,1.08.61l.31-1.98h1.02l-.8,5.03h-.96l.1-.64c-.24.41-.67.72-1.21.72-.81,0-1.42-.62-1.42-1.63ZM63.28,5.35c0-.52-.26-.85-.72-.85-.56,0-1.02.61-1.02,1.32,0,.53.27.85.7.85.56,0,1.03-.64,1.03-1.32Z"/>
          <path class="cls-1" d="M67.9,5.81h-2.54c0,.53.29.85.77.85.39,0,.67-.2.9-.56l.81.4c-.34.58-.98.95-1.78.95-1.03,0-1.74-.62-1.74-1.66,0-1.15.85-2.08,2.03-2.08,1,0,1.61.65,1.61,1.57,0,.16-.02.41-.05.54ZM66.95,5.12c0-.41-.22-.67-.62-.67-.44,0-.75.32-.89.77h1.5s0-.08,0-.11Z"/>
          <path class="cls-1" d="M70.5,3.43c0,.85-.64,1.52-1.5,1.52-.74,0-1.24-.51-1.24-1.2,0-.86.64-1.52,1.5-1.52.73,0,1.23.51,1.23,1.2ZM70.17,3.45c0-.54-.36-.92-.93-.92-.63,0-1.14.51-1.14,1.19,0,.55.37.93.93.93.63,0,1.14-.51,1.14-1.19ZM69.36,3.7l.07.12c.08.15.14.17.3.18l-.04.27c-.32,0-.43-.09-.56-.35l-.09-.17h-.17l-.08.52h-.31l.22-1.43h.57c.34,0,.54.16.54.42,0,.27-.2.41-.44.43ZM69.48,3.29c0-.12-.09-.18-.24-.18h-.27l-.06.4h.32c.15,0,.25-.08.25-.22Z"/>
        </g>
      </g>
      <g>
        <path class="cls-1" d="M4.85,1.72h-2.21c-.45,0-.81.36-.81.81v.56c0,.11.09.19.19.19h.95v4.38s0,.04.01.06l.32.93c.06.19.23.31.43.31s.37-.12.43-.31l.32-.93s.01-.04.01-.06v-.02s0-.05,0-.08v-1.27s0-.05,0-.08v-1.1s0-.05,0-.08v-1.75h.95c.11,0,.19-.09.19-.19v-.56c0-.44-.36-.81-.81-.81ZM4.12,3.28v1.31l-.75-.75v-.55h.75ZM3.36,6.36v-.8l.75.75v.8l-.75-.75ZM3.36,5.01v-.63l.75.75v.63l-.75-.75ZM3.81,8.53c-.03.08-.1.08-.13,0l-.31-.9v-.72l.74.75-.3.87ZM5.26,2.89h-3.05v-.36c0-.23.19-.42.42-.42h2.21c.23,0,.42.19.42.42v.36Z"/>
        <path class="cls-1" d="M6.51.57h-.21c0,.38-.31.7-.7.7v.21c.38,0,.7.31.7.7h.21c0-.38.31-.7.7-.7v-.21c-.38,0-.7-.31-.7-.7Z"/>
        <path class="cls-1" d="M.91,3.27h-.21c0,.38-.31.7-.7.7v.21c.38,0,.7.31.7.7h.21c0-.38.31-.7.7-.7v-.21c-.38,0-.7-.31-.7-.7Z"/>
      </g>
    </g>
  </g>
</svg>